PathFileType	4	(X/Y/Z)	Patient4_TMGait_0pt6_01_right_36.trc.trc
DataRate	CameraRate	NumFrames	NumMarkers	Units	OrigDataRate	OrigDataStartFrame	OrigNumFrames
81.395348837209	81.395348837209	4	33	mm	81.395348837209	89	       141
Frame#	Time	Sacral			L.Shoulder			Chest			R.Shoulder			Neck			R.ASIS			L.ASIS			R.Thigh.Superior			R.Thigh.Lateral			R.Thigh.Inferior			R.Patella			L.Thigh.Superior			L.Thigh.Lateral			L.Thigh.Inferior			L.Patella			L.Shank.Superior			L.Shank.Lateral			L.Shank.Inferior			R.Shank.Superior			R.Shank.Lateral			R.Shank.Inferior			R.Heel			R.Midfoot.Superior			R.Midfoot.Lateral			R.Toe			L.Heel			L.Midfoot.Lateral			L.Midfoot.Superior			L.Toe			L.Elbow			L.Wrist			R.Elbow			R.Wrist			
		X1	Y1	Z1	X2	Y2	Z2	X3	Y3	Z3	X4	Y4	Z4	X5	Y5	Z5	X6	Y6	Z6	X7	Y7	Z7	X8	Y8	Z8	X9	Y9	Z9	X10	Y10	Z10	X11	Y11	Z11	X12	Y12	Z12	X13	Y13	Z13	X14	Y14	Z14	X15	Y15	Z15	X16	Y16	Z16	X17	Y17	Z17	X18	Y18	Z18	X19	Y19	Z19	X20	Y20	Z20	X21	Y21	Z21	X22	Y22	Z22	X23	Y23	Z23	X24	Y24	Z24	X25	Y25	Z25	X26	Y26	Z26	X27	Y27	Z27	X28	Y28	Z28	X29	Y29	Z29	X30	Y30	Z30	X31	Y31	Z31	X32	Y32	Z32	X33	Y33	Z33	

89	44.311142857143	762.330019509294	1003.886893074481	447.709345494067	897.504826963722	1433.240730460626	251.581915203183	1020.990793475991	1371.981474553433	400.144940198575	952.896600008826	1442.312707514871	581.198998641274	892.768689054173	1493.963936752043	405.650540058399	995.655478471454	939.150626851114	545.742849024911	964.489561662039	962.063289072662	273.520225773256	1034.629971160008	735.067509266095	523.811069544844	958.477603587743	625.346890956888	591.473288510951	1037.210287530947	567.029317110035	514.290978827664	1027.956808280634	456.263215700442	534.506423842755	1032.046624494881	759.443557036617	303.855519783899	952.640200969254	635.724177842787	251.687530677968	1047.628205754415	566.371878164656	310.883595458990	1055.021349886027	495.647109174944	321.976601657426	1029.431643645471	420.910180338890	317.633143894331	942.161965562135	302.857124863534	270.143717705100	998.069892486848	195.563463682403	344.239587906516	947.989302599389	391.313789407026	539.527900773482	826.610323969032	353.647754843454	599.432429394059	809.304447286812	246.478018050153	547.374092131750	604.139628349597	182.629647876591	518.955310710381	775.731628377699	131.659186531540	559.545273183495	666.231898850907	126.914042875049	592.239233991259	844.240548357873	32.415712196857	585.043345973300	873.675047462511	38.415947965507	389.957551015230	948.700450745443	35.242133614195	309.776347926689	1030.574719239615	97.078033919874	336.466201984421	1160.119395579114	46.383277500066	311.528485925132	863.432637311987	1075.827969060959	141.109448030866	939.289255064558	826.572135047550	142.917534192787	1026.260058338379	1100.373849381685	692.719457230717	1264.654999233817	1073.936175652606	612.107948104773	
90	44.323428571429	760.647217662336	1004.186619391874	444.811122437289	898.044524016049	1433.625015093285	249.288297753234	1019.926073565175	1372.407574109078	399.197658548100	950.010907901190	1442.665951375183	579.624837314104	891.717610480716	1494.525261157963	403.390157249393	993.475544562438	939.435361332257	545.104502899383	964.081522158954	962.383979596168	272.384443243856	1038.009602216258	738.305719241653	523.023992039058	964.939236970383	627.006437062868	590.775182480603	1045.860348218720	570.330270818876	514.152382872897	1038.426598661355	458.585506801460	534.561866137724	1029.139428398864	758.535356286779	301.649531737713	948.338741664423	635.893547071985	249.722678430836	1042.489878875334	565.573460412762	308.884338848090	1049.032503098975	494.966641125606	319.916208265996	1023.204773296424	420.420125136927	315.826400102571	935.233781868090	302.592822195285	268.898245822620	990.962194816930	195.329717707485	343.306067879232	957.176185177203	393.837450190952	539.085690993878	834.341417467855	359.330060997921	598.187870336750	814.824545637082	252.509027587827	546.517301735139	608.632405070869	195.387112252605	516.676559809522	778.034628743233	137.894557868269	558.647381663954	668.061339303605	137.502118467362	590.666659016647	842.507432058144	33.786899271907	585.441902510301	866.150317357401	38.400669574084	389.765552181137	941.185887388155	35.093346355189	309.585310245831	1023.125191327727	96.929432617789	336.168133695821	1152.646793739698	46.170879198414	311.460759654168	868.995001777616	1076.393586181983	136.278814004925	953.852575154826	829.825018670297	137.698741820639	1015.446123976886	1098.753690918782	691.209048383749	1252.936523301253	1053.880662654401	613.523075019960	
91	44.335714285714	758.911788468566	1004.546933898989	442.063730935790	898.569629012615	1433.990625058936	247.122725629585	1018.803971555768	1372.849543014504	398.406815470746	947.053141131776	1443.088878371895	578.158232919386	890.663020504908	1495.136157031330	401.189826377863	991.219868790302	939.727395002606	544.626100538806	963.531877804746	962.803427065109	271.388717514905	1041.111546518598	741.843894554881	522.174667209820	971.244755439827	629.071874306817	590.160356017051	1054.214355434656	574.136068382402	514.042640116222	1048.822371336232	461.522486422027	534.598381771855	1026.136828856413	757.728102780253	299.600525555279	943.835557039237	636.133647651221	247.960874700860	1037.135632645732	564.817165572340	307.078515929044	1042.831819272818	494.353803296400	318.072859451862	1016.792544880277	420.034483459099	314.186949934129	928.153421825781	302.424117503159	267.812165131164	983.794140557104	195.173593326941	342.440060907001	966.547772013187	396.765600988753	538.661029815774	842.464016945976	364.933146784195	596.944747215311	821.116417659048	258.459313950676	545.578093276771	614.280235154152	206.872422426267	514.234271224492	781.609574452953	144.154174789085	557.623782695202	671.349586648603	147.354641702367	588.945567389366	842.722963550643	35.938588197020	585.790887861415	858.653165506498	38.406762051870	389.576940370172	933.702658326421	34.975079933712	309.408678129830	1015.698259017698	96.825367033797	335.878645786869	1145.190176244695	46.015254031606	311.390372554073	874.823204000658	1077.036251534998	131.624755251079	968.491434374372	833.442124676854	132.712478732638	1004.591209852216	1097.439458603196	689.904039068649	1239.573166769762	1033.832608449316	615.232552121001	
92	44.348000000000	757.150086099697	1004.999858051707	439.477799161039	899.039922635055	1434.376448799999	245.100781750470	1017.622238889705	1373.341104879944	397.749578764899	944.058580446738	1443.610377643227	576.787056566754	889.601942115922	1495.817187091611	399.051963739494	988.916889640322	940.112286791423	544.230363607188	962.852225507823	963.339124982976	270.510581472861	1043.872091920520	745.665464077392	521.243909501009	977.313907676846	631.537297573575	589.618974330315	1062.167714368899	578.422841807946	513.930893648168	1059.039714942403	465.054760071824	534.627167476251	1023.078254804708	757.012883918107	297.700458388813	939.122091247911	636.429447120451	246.449954433147	1031.573259103058	564.092556028571	305.488431700289	1036.425616176638	493.810891623276	316.512682678766	1010.210515647254	419.757224101318	312.769181991406	920.953989633540	302.355239162895	266.910256463535	976.575328820611	195.094669197431	341.674485557624	976.030037808461	400.065363063922	538.278354604562	850.913008622303	370.318405887223	595.748282623152	828.207447576042	264.137424588519	544.611946155155	621.052901085058	216.688771036309	511.761305414658	786.594678173469	150.157815277067	556.524245686540	676.184638360288	156.068784318365	587.158319068496	845.152156452240	38.771935102970	586.028318178967	851.180228339131	38.431693778476	389.397510389684	926.249551569640	34.887839733282	309.250825578082	1008.291688263063	96.764717974387	335.607604238384	1137.748842753083	45.914997280690	311.320117645862	880.925535025288	1077.791655319968	127.199604795336	983.140623985344	837.435587385465	127.991832048547	993.719842163472	1096.464589400696	688.836175017591	1224.516682518959	1013.928755538679	617.325829675195	
